<svg xmlns="http://www.w3.org/2000/svg" viewBox="0 0 550 615.83"><g id="Layer_2" data-name="Layer 2"><g id="Layer_1-2" data-name="Layer 1"><path d="M324.24,277.51l47.38-26.77c3.07,3.82,7.24,8.32,10.63,13.34,17.5,25.92,25.93,54.75,22.76,85.78-3.15,30.79-15.54,57.83-37.86,80.2Q300,497.4,233.84,565.7c-14,14.56-28.05,28.46-46.57,37.18a132.94,132.94,0,0,1-69.45,12.31c-29-2.45-53.78-13.73-74.95-32.75C20.35,562.23,7,536.73,1.69,506.55c-5.15-29.58,2-56.26,13.58-83.21C36.07,374.78,55.11,325.47,75,276.52c26.51-65.29,52.91-130.63,79.78-195.77C172.22,38.42,204.45,12.3,248.55,3c45.75-9.6,86.12,3.77,119.57,36.51,12.46,12.19,21.45,27,27.87,43.29,13.47,34.24,26.9,68.49,40.88,102.52C471,268.28,505.64,351,539.49,434c21.74,53.28,9.65,112.25-35.29,151-19.62,16.93-42.71,26.78-69,29.85-35.38,4.12-66.74-4.79-95-25.64-6.59-4.87-12.14-11.17-18-17-10-10-19.85-20.13-30.95-31.43l37-39c6.47,7.3,12.29,14,18.28,20.57,12,13.1,24.85,25.1,41.07,33,45,21.84,97.89-6.8,107.39-55.91a75.88,75.88,0,0,0-4.8-43.93q-46.44-111.71-92.43-223.61c-4-9.58-8-19.14-12.44-29.92-2.9,3.39-4.76,5.29-6.31,7.41-19.41,26.64-46,42.16-77.65,49.14a160.19,160.19,0,0,1-31.52,3.43c-33.68.55-65.9,31.57-70.32,63.38-4,28.59,5.36,51.58,24.75,71.36,10.71,10.93,22.17,21.13,34.21,32.54L223,466.73c-8.92-7.79-17.1-14.43-24.7-21.67-23.32-22.25-42.21-47.32-50.1-79.43-9.21-37.45-.78-71.68,20.2-102.75,21.09-31.24,52-48,88.66-54.46,5-.88,10.21-.37,15.33-.36,45.62.12,81.46-37.37,79.09-81.2-1.87-34.54-26.68-62.09-57.95-70.51-37.42-10.08-76.56,12.66-90,46.49-23.68,59.65-47.92,119.09-72.27,178.48-19.59,47.82-39.77,95.39-59.5,143.15-5.22,12.64-10,25.47-14.51,38.39-8.56,24.62-3.57,47.73,11.28,68,15.17,20.68,36.62,32,62.66,31.8,19.45-.17,37.22-7,51-21,45.52-46.33,90.56-93.13,135.78-139.76,4.92-5.08,9.83-10.18,14.64-15.38,23.67-25.57,24.77-62.57,5.8-91.23C334.08,288.85,328.74,283.13,324.24,277.51Z"/><path d="M316.05,136.79c.06,24-17.36,41-41.4,41.52-21.12.45-40.93-18.23-40.83-41.38.1-24.31,22.36-41.32,41.26-41.4C296.73,95.44,318.09,117.14,316.05,136.79Z"/><path d="M128.79,445.35c24,.06,39.66,16.73,40.79,40.66.88,18.45-14.74,41.66-40.67,41.37-23.58-.26-40.63-14.64-41.53-41.74C86.66,463.83,106.34,443.55,128.79,445.35Z"/><path d="M420.89,445.21c23.95.06,39.65,16.73,40.78,40.66.88,18.46-14.74,41.66-40.67,41.38-23.58-.26-40.62-14.65-41.52-41.75C378.75,463.69,398.43,443.41,420.89,445.21Z"/><path d="M275.3,307c23.95.06,39.66,16.72,40.79,40.66.88,18.45-14.74,41.66-40.67,41.37-23.58-.26-40.63-14.64-41.53-41.74C233.17,325.5,252.85,305.22,275.3,307Z"/></g></g></svg>